<?xml version="1.0" encoding="UTF-8"?>
<svg id="_レイヤー_2" data-name="レイヤー 2" xmlns="http://www.w3.org/2000/svg" xmlns:xlink="http://www.w3.org/1999/xlink" viewBox="0 0 605.67 605.67">
  <defs>
    <style>
      .cls-1, .cls-2, .cls-3 {
        stroke-width: 0px;
      }

      .cls-4 {
        stroke: #000;
        stroke-miterlimit: 10;
        stroke-width: 5.67px;
      }

      .cls-4, .cls-3 {
        fill: #0c8a41;
      }

      .cls-2 {
        fill: #fff;
      }

      .cls-5 {
        filter: url(#luminosity-noclip);
      }

      .cls-6 {
        mask: url(#mask-1);
      }

      .cls-7 {
        mask: url(#mask);
      }

      .cls-8 {
        filter: url(#luminosity-noclip-2);
      }
    </style>
    <filter id="luminosity-noclip" x="387.83" y="81.71" width="165" height="243.37" color-interpolation-filters="sRGB" filterUnits="userSpaceOnUse">
      <feFlood flood-color="#fff" result="bg"/>
      <feBlend in="SourceGraphic" in2="bg"/>
    </filter>
    <mask id="mask" x="387.83" y="81.71" width="165" height="243.37" maskUnits="userSpaceOnUse">
      <g class="cls-5">
        <g>
          <rect class="cls-1" x="411.55" y="102.33" width="46.41" height="48.37"/>
          <rect class="cls-1" x="483.74" y="102.33" width="46.41" height="48.37"/>
          <rect class="cls-1" x="411.55" y="180.81" width="46.41" height="48.37"/>
          <rect class="cls-1" x="483.74" y="180.64" width="46.41" height="48.37"/>
          <rect class="cls-1" x="483.74" y="258.52" width="46.41" height="66.56"/>
        </g>
      </g>
    </mask>
    <filter id="luminosity-noclip-2" x="0" y="0" width="605.67" height="605.67" color-interpolation-filters="sRGB" filterUnits="userSpaceOnUse">
      <feFlood flood-color="#fff" result="bg"/>
      <feBlend in="SourceGraphic" in2="bg"/>
    </filter>
    <mask id="mask-1" x="0" y="0" width="605.67" height="605.67" maskUnits="userSpaceOnUse">
      <g class="cls-8">
        <rect class="cls-1" x="52.83" y="52.83" width="500" height="500" rx="20" ry="20" transform="translate(605.67 0) rotate(90)"/>
      </g>
    </mask>
  </defs>
  <g id="_レイヤー_3" data-name="レイヤー 3">
    <rect class="cls-3" x="2.83" y="2.83" width="600" height="600" rx="70" ry="70"/>
  </g>
  <g id="Figure">
    <g class="cls-7">
      <rect class="cls-2" x="387.83" y="81.71" width="165" height="243.37"/>
    </g>
  </g>
  <g id="_レイヤー_1-2" data-name="レイヤー 1">
    <g>
      <path class="cls-2" d="m324.95,322.49c0,10.6,8.6,19.19,19.19,19.19s19.19-8.59,19.19-19.19-8.59-19.18-19.19-19.18-19.19,8.6-19.19,19.18Z"/>
      <path class="cls-2" d="m235.57,442.41l38.81-1.71,1.23-27.45c.05-.55.14-1.09.25-1.61.69-6.96,2.65-14.3,5.57-18.77,3.1-4.74,12.64-20.83,15.59-25.81l-14.42-2.72-25.58,23.43c-2.91,2.91-7.64,2.91-10.56,0-2.91-2.92-2.91-7.65,0-10.56l23.38-25.86c2.28-2.76,4.56-4.87,8.86-5.5,0,0,46.07-2.16,54.52-.22,5.28,1.22,14.3,4.55,18.59,12.08l13.52,20.58,32.12,1.47c4.12,0,7.47,3.35,7.47,7.47s-3.34,7.47-7.47,7.47l-36.93,1.69s-.08,0-.13,0c-2.88.04-5.74-1.28-7.56-3.79l-11.79-14.9s-.02.02-.02.02c-.07-.1-.14-.2-.21-.3l-.54-.68c-.99-1.08-1.57-.86-2.94,1.41-2.6,4.34-9.1,17.55-10.84,21.67-.75,1.78-1.14,3.36-.43,5.46.06.1.12.17.17.26l18.03,33.08,24.05,44.1c2.77,4.6,1.3,10.58-3.31,13.36-4.6,2.78-10.58,1.3-13.36-3.3l-27.82-41.82-17.99-27.03c-.86-1.12-1.93-2.59-2.25-3.4l-.63-.94c-.04-.07-.08-.14-.12-.22-.35-.16-.7.21-.82,1.46,0,.01,0,.01,0,.02l-4.29,32.17c-.11,1.28-.42,2.48-.9,3.6-1.76,4.39-6.05,7.49-11.07,7.49l-50.18-2.21c-5.37,0-9.73-4.36-9.73-9.74s4.36-9.74,9.73-9.74Z"/>
    </g>
    <path class="cls-2" d="m52.83,204.83c20-5,58,2,81.47,10.01,51.98,17.75,88.03,29.57,99.53,69.99,4.8,16.88,5,35,3,42-6.26,21.91-14.7,4.91-18-5s-4.48-15.6-11.46-21.88c-24.54-22.12-96.54,5.88-96.54,83.88,0,94,110.15,148.13,167,169H52.83"/>
  </g>
  <g id="_レイヤー_4" data-name="レイヤー 4">
    <g class="cls-6">
      <rect class="cls-4" x="2.83" y="2.83" width="600" height="600" rx="70" ry="70"/>
    </g>
  </g>
</svg>